<?xml version="1.0" encoding="utf-8"?>
<!-- Generator: Adobe Illustrator 16.0.0, SVG Export Plug-In . SVG Version: 6.00 Build 0)  -->
<!DOCTYPE svg PUBLIC "-//W3C//DTD SVG 1.1//EN" "http://www.w3.org/Graphics/SVG/1.1/DTD/svg11.dtd">
<svg version="1.1" id="Layer_1" xmlns="http://www.w3.org/2000/svg" xmlns:xlink="http://www.w3.org/1999/xlink" x="0px" y="0px"
	 width="200px" height="200px" viewBox="0 0 200 200" enable-background="new 0 0 200 200" xml:space="preserve">
<g>
	<path fill-rule="evenodd" clip-rule="evenodd" fill="#FFFFFF" d="M99.7,2C44.645,2,0,46.635,0,101.699
		c0,44.051,28.567,81.42,68.181,94.606c4.982,0.921,6.812-2.164,6.812-4.799c0-2.376-0.092-10.231-0.136-18.561
		c-27.736,6.029-33.589-11.764-33.589-11.764c-4.536-11.524-11.07-14.587-11.07-14.587c-9.047-6.189,0.682-6.063,0.682-6.063
		c10.01,0.704,15.283,10.278,15.283,10.278c8.892,15.238,23.323,10.834,29.013,8.286c0.895-6.442,3.478-10.844,6.33-13.334
		c-22.145-2.519-45.425-11.069-45.425-49.271c0-10.883,3.895-19.776,10.273-26.761c-1.035-2.512-4.448-12.651,0.966-26.384
		c0,0,8.373-2.678,27.423,10.22c7.953-2.208,16.483-3.316,24.955-3.354c8.471,0.039,17.005,1.146,24.975,3.354
		c19.03-12.898,27.39-10.22,27.39-10.22c5.427,13.733,2.016,23.872,0.979,26.384c6.391,6.984,10.262,15.877,10.262,26.761
		c0,38.295-23.324,46.724-45.525,49.193c3.576,3.094,6.761,9.163,6.761,18.462c0,13.339-0.115,24.078-0.115,27.36
		c0,2.653,1.796,5.762,6.85,4.784c39.594-13.197,68.124-50.558,68.124-94.592C199.399,46.635,154.76,2,99.7,2z"/>
	<path fill="#FFFFFF" d="M37.762,145.146c-0.22,0.497-1,0.646-1.709,0.304c-0.724-0.326-1.129-1-0.895-1.497
		c0.214-0.508,0.995-0.65,1.717-0.312C37.599,143.966,38.012,144.651,37.762,145.146L37.762,145.146z M36.535,144.238"/>
	<path fill="#FFFFFF" d="M41.8,149.652c-0.475,0.438-1.405,0.234-2.036-0.462c-0.653-0.696-0.774-1.626-0.292-2.073
		c0.49-0.438,1.392-0.231,2.044,0.461C42.169,148.282,42.297,149.204,41.8,149.652L41.8,149.652z M40.849,148.629"/>
	<path fill="#FFFFFF" d="M45.731,155.392c-0.611,0.425-1.61,0.028-2.228-0.857c-0.611-0.888-0.611-1.951,0.015-2.377
		c0.618-0.426,1.603-0.042,2.228,0.835C46.355,153.896,46.355,154.96,45.731,155.392L45.731,155.392z M45.731,155.392"/>
	<path fill="#FFFFFF" d="M51.116,160.942c-0.547,0.603-1.71,0.438-2.562-0.385c-0.873-0.803-1.115-1.944-0.568-2.548
		c0.555-0.603,1.725-0.432,2.583,0.384C51.436,159.197,51.698,160.345,51.116,160.942L51.116,160.942z M51.116,160.942"/>
	<path fill="#FFFFFF" d="M58.546,164.163c-0.242,0.779-1.363,1.135-2.491,0.803c-1.129-0.342-1.866-1.258-1.639-2.045
		c0.234-0.786,1.361-1.157,2.498-0.803C58.041,162.46,58.78,163.366,58.546,164.163L58.546,164.163z M58.546,164.163"/>
	<path fill="#FFFFFF" d="M66.706,164.759c0.027,0.822-0.93,1.503-2.116,1.52c-1.191,0.025-2.157-0.64-2.17-1.448
		c0-0.832,0.937-1.506,2.128-1.525C65.733,163.282,66.706,163.943,66.706,164.759L66.706,164.759z M66.706,164.759"/>
	<path fill="#FFFFFF" d="M74.298,163.466c0.142,0.803-0.682,1.626-1.859,1.845c-1.158,0.213-2.228-0.284-2.377-1.077
		c-0.143-0.821,0.695-1.648,1.851-1.86C73.092,162.171,74.148,162.65,74.298,163.466L74.298,163.466z M74.298,163.466"/>
</g>
</svg>
