<?xml version="1.0" encoding="utf-8"?>
<!-- Generator: Adobe Illustrator 16.0.0, SVG Export Plug-In . SVG Version: 6.00 Build 0)  -->
<!DOCTYPE svg PUBLIC "-//W3C//DTD SVG 1.1//EN" "http://www.w3.org/Graphics/SVG/1.1/DTD/svg11.dtd">
<svg version="1.1" id="Layer_1" xmlns="http://www.w3.org/2000/svg" xmlns:xlink="http://www.w3.org/1999/xlink" x="0px" y="0px"
	 width="300px" height="300px" viewBox="0 0 300 300" enable-background="new 0 0 300 300" xml:space="preserve">
<path fill="#FFFFFF" d="M297.389,58.609c-10.941,4.853-22.7,8.133-35.043,9.607c12.598-7.551,22.272-19.508,26.827-33.755
	c-11.788,6.992-24.846,12.07-38.744,14.806C239.3,37.41,223.443,30,205.895,30c-33.697,0-61.015,27.318-61.015,61.011
	c0,4.783,0.54,9.438,1.58,13.904c-50.708-2.544-95.665-26.834-125.757-63.748c-5.252,9.011-8.261,19.492-8.261,30.673
	c0,21.167,10.772,39.842,27.143,50.784c-10.001-0.316-19.409-3.062-27.635-7.631c-0.004,0.255-0.005,0.51-0.005,0.767
	c0,29.562,21.031,54.222,48.943,59.826c-5.12,1.394-10.51,2.14-16.075,2.14c-3.931,0-7.753-0.382-11.479-1.094
	c7.764,24.239,30.296,41.88,56.995,42.373c-20.881,16.364-47.189,26.118-75.774,26.118c-4.924,0-9.781-0.289-14.554-0.852
	c27.001,17.311,59.072,27.411,93.527,27.411c112.226,0,173.594-92.969,173.594-173.595c0-2.645-0.06-5.276-0.177-7.893
	C278.864,81.591,289.209,70.845,297.389,58.609z"/>
</svg>
